<svg width="16" height="16" viewBox="0 0 16 16" fill="none" xmlns="http://www.w3.org/2000/svg">
<path fill-rule="evenodd" clip-rule="evenodd" d="M8.01786 13.0443C7.85893 13.0443 7.70001 12.9836 7.58036 12.8639L4.79822 10.0797C4.55893 9.83857 4.55893 9.44746 4.80001 9.20636C5.03929 8.96526 5.43036 8.96526 5.67143 9.20636L7.40179 10.9369L7.40179 0.617925C7.40179 0.276816 7.67858 0 8.01965 0C8.36072 0 8.63751 0.276816 8.63751 0.617925L8.63751 10.9369L10.3679 9.20636C10.4839 9.09028 10.6393 9.02598 10.8036 9.02598C10.9679 9.02598 11.1232 9.09028 11.2393 9.20636C11.4804 9.44746 11.4804 9.83857 11.2393 10.0797L8.45536 12.8639C8.33393 12.9836 8.17679 13.0443 8.01786 13.0443ZM14.7643 10.9119C14.7643 10.5708 15.0411 10.294 15.3821 10.294C15.7232 10.294 16 10.5708 16 10.9101V14.8909C16 15.5017 15.5036 16 14.8911 16L1.10893 16C0.498214 16 0 15.5035 0 14.8909L0 10.9101C0 10.5708 0.275 10.2922 0.616071 10.2922C0.957143 10.2922 1.23393 10.569 1.23393 10.9101L1.23393 14.4016C1.23393 14.6052 1.4 14.7695 1.60179 14.7695L14.3964 14.7695C14.6 14.7695 14.7643 14.6034 14.7643 14.4016L14.7643 10.9119Z" fill="#1890FF"/>
</svg>
