<svg width="14" height="14" viewBox="0 0 14 14" fill="none" xmlns="http://www.w3.org/2000/svg">
<path d="M12 5.51315C12 5.62582 11.9583 5.73966 11.8749 5.83473L7.43216 10.8087C7.324 10.9296 7.16109 11 6.98776 11C6.81573 11 6.65153 10.9296 6.54466 10.8087L2.1254 5.85585C1.92861 5.63521 1.9677 5.31245 2.21271 5.13523C2.45772 4.958 2.81611 4.99321 3.0129 5.21386L6.98907 9.66907L10.9874 5.19156C11.1842 4.97092 11.5426 4.93571 11.7876 5.11293C11.927 5.21504 12 5.36292 12 5.51315Z" fill="white"/>
<mask id="mask0" mask-type="alpha" maskUnits="userSpaceOnUse" x="2" y="4" width="10" height="6">
<path d="M12 4.51315C12 4.62582 11.9583 4.73966 11.8749 4.83473L7.43216 9.80869C7.324 9.92958 7.16109 10 6.98776 10C6.81573 10 6.65153 9.92958 6.54466 9.80869L2.1254 4.85585C1.92861 4.63521 1.9677 4.31245 2.21271 4.13523C2.45772 3.958 2.81611 3.99321 3.0129 4.21386L6.98907 8.66907L10.9874 4.19156C11.1842 3.97092 11.5426 3.93571 11.7876 4.11293C11.927 4.21504 12 4.36292 12 4.51315Z" fill="white"/>
</mask>
<g mask="url(#mask0)">
</g>
</svg>
