<svg width="87" height="35" viewBox="0 0 87 35" fill="none" xmlns="http://www.w3.org/2000/svg">
<rect x="0.499908" y="1.25" width="86" height="33" rx="2.5" fill="white" stroke="#EDE9E9"/>
<path d="M26.7271 23.2669C26.7563 23.6146 26.8952 23.9624 27.1437 24.3102C27.3922 24.658 27.5165 24.9153 27.5165 25.0823V25.1657C27.5165 25.43 27.3411 25.5622 26.9902 25.5622H22.6045C22.2536 25.5622 22.0782 25.43 22.0782 25.1657V25.0823C22.0782 24.9292 22.2171 24.6788 22.4948 24.3311C22.7726 23.9833 22.8968 23.6285 22.8676 23.2669L22.6483 19.5734C22.5898 18.5301 22.4436 17.7928 22.2097 17.3616C21.9758 16.9164 21.6177 16.6938 21.1352 16.6938C20.6967 16.6938 20.3604 16.8747 20.1265 17.2364C19.8926 17.598 19.7756 18.078 19.7756 18.6762C19.8195 18.9683 19.8414 19.2604 19.8414 19.5526V23.2669C19.8414 23.6146 19.973 23.9624 20.2362 24.3102C20.4993 24.658 20.6309 24.9153 20.6309 25.0823V25.1657C20.6309 25.43 20.4554 25.5622 20.1046 25.5622H15.7408C15.3899 25.5622 15.2145 25.43 15.2145 25.1657V25.0823C15.2145 24.9153 15.3387 24.658 15.5873 24.3102C15.8504 23.9624 15.982 23.6146 15.982 23.2669V19.3022C15.982 17.5633 15.4849 16.6938 14.4908 16.6938C14.0084 16.6938 13.6429 16.8747 13.3944 17.2364C13.1459 17.598 13.0216 18.078 13.0216 18.6762V23.2669C13.0216 23.6146 13.1824 23.9624 13.504 24.3102C13.8256 24.658 13.9865 24.9153 13.9865 25.0823V25.1657C13.9865 25.43 13.811 25.5622 13.4602 25.5622H8.72356C8.3727 25.5622 8.19727 25.43 8.19727 25.1657V25.0823C8.19727 24.9153 8.35808 24.658 8.6797 24.3102C9.00132 23.9624 9.16213 23.6146 9.16213 23.2669V19.1561C9.16213 18.8779 9.0598 18.6414 8.85513 18.4466C8.66508 18.238 8.47503 18.0571 8.28498 17.9041C8.09493 17.7511 7.99991 17.5911 7.99991 17.4242V17.3616C7.99991 17.1807 8.17534 17.0068 8.5262 16.8399L11.8155 15.4001C12.0787 15.2888 12.2833 15.2888 12.4295 15.4001C12.5757 15.5114 12.6488 15.6783 12.6488 15.9009V16.6521C13.3213 15.7618 14.2935 15.3166 15.5653 15.3166C17.1881 15.3166 18.3868 15.887 19.1616 17.0277C19.454 16.4852 19.8853 16.0678 20.4554 15.7757C21.0256 15.4696 21.6761 15.3166 22.4071 15.3166C23.4743 15.3166 24.3807 15.6574 25.1263 16.3391C25.8865 17.0207 26.325 18.1406 26.442 19.6986L26.7271 23.2669Z" fill="#404040"/>
<path d="M38.7423 23.2669C38.7862 23.6007 38.8666 23.872 38.9835 24.0807C39.1151 24.2754 39.2394 24.4006 39.3563 24.4563C39.4879 24.5119 39.6048 24.5815 39.7072 24.6649C39.8095 24.7484 39.8607 24.8527 39.8607 24.9779C39.8607 25.437 39.0347 25.6665 37.3827 25.6665C36.7102 25.6665 36.2059 25.59 35.8696 25.437C35.548 25.284 35.3434 25.0266 35.2556 24.6649C34.7001 25.3883 33.7718 25.75 32.4707 25.75C31.2427 25.75 30.2413 25.4787 29.4664 24.9362C28.7062 24.3937 28.3262 23.6077 28.3262 22.5783C28.3262 21.5766 28.7062 20.7976 29.4664 20.2412C30.2266 19.6708 31.1623 19.3856 32.2733 19.3856C33.1359 19.3856 33.8741 19.5595 34.4881 19.9073V19.8447C34.3419 18.4675 34.1738 17.5354 33.9838 17.0486C33.8083 16.5617 33.4575 16.3182 32.9312 16.3182C32.5949 16.3182 32.3245 16.4643 32.1198 16.7564C31.9152 17.0486 31.7617 17.3685 31.6593 17.7163C31.5716 18.0641 31.3962 18.384 31.133 18.6762C30.8699 18.9683 30.519 19.1144 30.0805 19.1144C29.6273 19.1144 29.2545 18.9892 28.9621 18.7388C28.6843 18.4884 28.5454 18.1614 28.5454 17.758C28.5454 16.9512 28.9694 16.346 29.8173 15.9426C30.6652 15.5253 31.7032 15.3166 32.9312 15.3166C34.3931 15.3166 35.5992 15.6992 36.5494 16.4643C37.5143 17.2155 38.0844 18.238 38.2599 19.5317L38.7423 23.2669ZM33.6768 24.6858C34.013 24.6858 34.2835 24.5328 34.4881 24.2267C34.7074 23.9207 34.8171 23.5729 34.8171 23.1834L34.7293 22.2235C34.5832 21.0689 34.13 20.4916 33.3698 20.4916C33.0335 20.4916 32.7631 20.6237 32.5584 20.888C32.3537 21.1384 32.2514 21.4793 32.2514 21.9105C32.2514 22.6895 32.3757 23.3503 32.6242 23.8929C32.8873 24.4215 33.2382 24.6858 33.6768 24.6858Z" fill="#404040"/>
<path d="M52.3114 23.2669C52.3407 23.6146 52.4795 23.9624 52.7281 24.3102C52.9766 24.6441 53.1008 24.9014 53.1008 25.0823V25.1657C53.1008 25.43 52.9254 25.5622 52.5746 25.5622H48.1888C47.8379 25.5622 47.6625 25.43 47.6625 25.1657V25.0823C47.6625 24.9153 47.8014 24.658 48.0792 24.3102C48.3569 23.9624 48.4812 23.6146 48.452 23.2669L48.2327 19.5317C48.1742 18.5023 48.028 17.7719 47.7941 17.3407C47.5748 16.9094 47.2166 16.6938 46.7196 16.6938C46.2518 16.6938 45.8936 16.8747 45.6451 17.2364C45.4112 17.598 45.2942 18.0919 45.2942 18.7179V23.2669C45.2942 23.6146 45.455 23.9624 45.7766 24.3102C46.0983 24.658 46.2591 24.9153 46.2591 25.0823V25.1657C46.2591 25.43 46.0836 25.5622 45.7328 25.5622H40.9962C40.6453 25.5622 40.4699 25.43 40.4699 25.1657V25.0823C40.4699 24.9153 40.6307 24.658 40.9523 24.3102C41.2739 23.9624 41.4347 23.6146 41.4347 23.2669V19.1561C41.4347 18.864 41.3397 18.6205 41.1497 18.4258C40.9596 18.2171 40.7623 18.0432 40.5576 17.9041C40.3675 17.7511 40.2725 17.5911 40.2725 17.4242V17.3616C40.2725 17.1807 40.448 17.0068 40.7988 16.8399L43.8688 15.4001C44.1466 15.2888 44.3513 15.2888 44.4828 15.4001C44.629 15.4975 44.7021 15.6644 44.7021 15.9009V16.8816C45.3161 15.8383 46.3614 15.3166 47.8379 15.3166C48.9344 15.3166 49.8773 15.6574 50.6668 16.3391C51.4562 17.0207 51.9094 18.1267 52.0263 19.6569L52.3114 23.2669Z" fill="#404040"/>
<path d="M65.0347 23.2669C65.0347 23.6146 65.1809 23.9624 65.4733 24.3102C65.7657 24.6441 65.9119 24.8945 65.9119 25.0614V25.1449C65.9119 25.4092 65.7437 25.5413 65.4075 25.5413H62.2717C61.8916 25.5413 61.7015 25.3674 61.7015 25.0197V24.8319C61.0144 25.444 60.1227 25.75 59.0262 25.75C57.6082 25.75 56.3875 25.2909 55.3641 24.3728C54.3554 23.4407 53.851 22.1609 53.851 20.5333C53.851 19.017 54.3627 17.7719 55.3861 16.7982C56.4094 15.8105 57.6301 15.3166 59.0482 15.3166C59.9399 15.3166 60.6928 15.5114 61.3068 15.9009V13.1256C61.3068 12.8474 61.2118 12.6109 61.0218 12.4161C60.8317 12.2075 60.6343 12.0336 60.4297 11.8945C60.2396 11.7414 60.1446 11.5815 60.1446 11.4145V11.3519C60.1446 11.0876 60.3127 10.9068 60.649 10.8094L64.0699 9.82865C64.7131 9.6339 65.0347 9.80083 65.0347 10.3295V23.2669ZM59.9034 24.7275C60.2981 24.7414 60.627 24.5884 60.8902 24.2685C61.1679 23.9485 61.3068 23.5173 61.3068 22.9747V18.9474C61.3068 18.2797 61.1022 17.6815 60.6928 17.1529C60.2981 16.6104 59.8449 16.3391 59.3332 16.3391C58.2514 16.3391 57.674 17.1946 57.6009 18.9057C57.5716 19.5595 57.6301 20.3177 57.7763 21.1802C57.9371 22.0427 58.2003 22.8495 58.5657 23.6007C58.9458 24.338 59.3917 24.7136 59.9034 24.7275Z" fill="#404040"/>
<path d="M78.057 23.246C78.057 23.6216 78.1008 23.9068 78.1885 24.1015C78.2909 24.2963 78.4005 24.4076 78.5175 24.4354C78.649 24.4493 78.7587 24.498 78.8464 24.5815C78.9487 24.6649 78.9999 24.7971 78.9999 24.9779C78.9999 25.2422 78.8099 25.4231 78.4298 25.5205C78.0643 25.6178 77.5014 25.6665 76.7412 25.6665C76.0541 25.6665 75.5498 25.5761 75.2282 25.3953C74.9212 25.2144 74.7384 24.9014 74.6799 24.4563C74.0952 25.3188 73.0645 25.75 71.588 25.75C70.4185 25.75 69.439 25.3883 68.6495 24.6649C67.8747 23.9276 67.4873 22.9191 67.4873 21.6392V18.1545C67.4873 17.7928 67.3411 17.445 67.0487 17.1112C66.7563 16.7773 66.6102 16.5408 66.6102 16.4017V16.3182C66.6102 16.04 66.7783 15.88 67.1145 15.8383L70.3819 15.4209C71.069 15.3375 71.4126 15.4766 71.4126 15.8383L71.3468 22.0148C71.3321 22.8495 71.4345 23.4547 71.6538 23.8303C71.8877 24.1919 72.2532 24.3728 72.7502 24.3728C73.1595 24.3728 73.5031 24.185 73.7809 23.8094C74.0586 23.4199 74.1975 22.9121 74.1975 22.2861V18.1545C74.1975 17.7928 74.0513 17.445 73.7589 17.1112C73.4665 16.7773 73.3204 16.5408 73.3204 16.4017V16.3182C73.3204 16.04 73.4885 15.88 73.8247 15.8383L77.0921 15.4209C77.7353 15.3375 78.057 15.4766 78.057 15.8383V23.246Z" fill="#404040"/>
<path d="M69.6275 14.1919C69.3774 14.4298 68.9721 14.4298 68.722 14.1919L67.2814 12.8211C67.0314 12.5832 67.0314 12.1974 67.2814 11.9595L68.722 10.5887C68.972 10.3508 69.3774 10.3508 69.6275 10.5887L71.068 11.9595C71.3181 12.1974 71.3181 12.5832 71.068 12.8211L69.6275 14.1919Z" fill="#404040"/>
<path d="M76.2456 14.1919C75.9955 14.4298 75.5902 14.4298 75.3401 14.1919L73.8995 12.8211C73.6495 12.5832 73.6495 12.1974 73.8995 11.9595L75.3401 10.5887C75.5902 10.3508 75.9955 10.3508 76.2456 10.5887L77.6862 11.9595C77.9362 12.1974 77.9362 12.5832 77.6862 12.8211L76.2456 14.1919Z" fill="#404040"/>
</svg>
