<svg width="18" height="18" viewBox="0 0 18 18" fill="none" xmlns="http://www.w3.org/2000/svg">
<path d="M7.258 16.0363C7.258 16.8305 6.67736 17.4261 5.90316 17.4261C5.12897 17.4261 4.54833 16.8305 4.54833 16.0363H7.258ZM5.99994 3.82611C6.38704 3.82611 6.67736 4.12392 6.67736 4.521V5.21589C8.51607 5.5137 9.96768 7.20129 9.96768 9.28596V13.356L11.9999 15.4407H-6.10352e-05L2.0322 13.356V9.28596C2.0322 7.30056 3.48381 5.61297 5.32252 5.21589V4.521C5.32252 4.12392 5.61284 3.82611 5.99994 3.82611Z" fill="white"/>
<ellipse cx="12.9999" cy="5.69159" rx="5" ry="5.06549" fill="#EA6364"/>
<path d="M12.2773 5.43079H12.8203C13.1614 5.42558 13.4296 5.33573 13.6249 5.16125C13.8203 4.98678 13.9179 4.7511 13.9179 4.45422C13.9179 3.78756 13.5859 3.45422 12.9218 3.45422C12.6093 3.45422 12.3593 3.54407 12.1718 3.72375C11.9869 3.90084 11.8945 4.13652 11.8945 4.43079H11.1718C11.1718 3.98027 11.3359 3.60657 11.664 3.30969C11.9947 3.01021 12.414 2.86047 12.9218 2.86047C13.4583 2.86047 13.8788 3.0024 14.1835 3.28625C14.4882 3.57011 14.6406 3.96464 14.6406 4.46985C14.6406 4.71724 14.5598 4.95683 14.3984 5.1886C14.2395 5.42037 14.0221 5.59355 13.746 5.70813C14.0585 5.80709 14.2994 5.97115 14.4687 6.20032C14.6406 6.42948 14.7265 6.70943 14.7265 7.04016C14.7265 7.55058 14.5598 7.95553 14.2265 8.255C13.8932 8.55448 13.4596 8.70422 12.9257 8.70422C12.3919 8.70422 11.957 8.55969 11.621 8.27063C11.2877 7.98157 11.121 7.60006 11.121 7.1261H11.8476C11.8476 7.42558 11.9453 7.66516 12.1406 7.84485C12.3359 8.02454 12.5976 8.11438 12.9257 8.11438C13.2747 8.11438 13.5416 8.02323 13.7265 7.84094C13.9114 7.65865 14.0038 7.39693 14.0038 7.05579C14.0038 6.72506 13.9023 6.47115 13.6992 6.29407C13.496 6.11698 13.2031 6.02584 12.8203 6.02063H12.2773V5.43079Z" fill="white"/>
</svg>
