<svg width="22" height="23" viewBox="0 0 22 23" fill="none" xmlns="http://www.w3.org/2000/svg">
<path d="M10.7 4.72815C6.90005 4.72815 3.80005 7.82044 3.80005 11.611C3.80005 15.4015 6.90005 18.4938 10.7 18.4938C14.5 18.4938 17.6 15.4015 17.6 11.611C17.6 7.82044 14.5 4.72815 10.7 4.72815ZM11.4 16.399H10.1V15.1023H11.4V16.399ZM12.7 11.3117L12.2 11.9102C11.7 12.409 11.4 12.808 11.4 13.8055H10.1V13.5063C10.1 12.808 10.4 12.1097 10.9 11.611L11.7 10.813C11.9 10.5137 12 10.2145 12 9.81546C12 9.1172 11.4 8.5187 10.7 8.5187C10 8.5187 9.40005 9.1172 9.40005 9.81546H8.10005C8.10005 8.31919 9.30005 7.22193 10.7 7.22193C12.2 7.22193 13.3 8.41895 13.3 9.81546C13.4 10.414 13.1 10.9127 12.7 11.3117Z" fill="#FAFAFA"/>
<path opacity="0.15" d="M10.7 20.589C15.6705 20.589 19.7 16.5696 19.7 11.6114C19.7 6.6532 15.6705 2.63379 10.7 2.63379C5.72939 2.63379 1.69995 6.6532 1.69995 11.6114C1.69995 16.5696 5.72939 20.589 10.7 20.589Z" fill="#FAFAFA"/>
<path opacity="0.1" d="M10.7 22.2843C16.6094 22.2843 21.4 17.5056 21.4 11.6109C21.4 5.71614 16.6094 0.9375 10.7 0.9375C4.79055 0.9375 0 5.71614 0 11.6109C0 17.5056 4.79055 22.2843 10.7 22.2843Z" fill="#FAFAFA"/>
</svg>
