<svg width="16" height="16" viewBox="0 0 16 16" fill="none" xmlns="http://www.w3.org/2000/svg">
<path fill-rule="evenodd" clip-rule="evenodd" d="M8.02117 0C8.1801 0 8.33903 0.0607212 8.45867 0.180377L11.2408 2.96461C11.4801 3.20571 11.4801 3.59682 11.239 3.83792C10.9997 4.07902 10.6087 4.07902 10.3676 3.83792L8.63724 2.10737V12.4264C8.63724 12.7675 8.36045 13.0443 8.01938 13.0443C7.67831 13.0443 7.40153 12.7675 7.40153 12.4264L7.40153 2.10737L5.67117 3.83792C5.5551 3.954 5.39974 4.0183 5.23545 4.0183C5.07117 4.0183 4.91581 3.954 4.79974 3.83792C4.55867 3.59682 4.55867 3.20571 4.79974 2.96461L7.58367 0.180377C7.7051 0.0607212 7.86224 0 8.02117 0ZM14.7643 10.9119C14.7643 10.5708 15.0411 10.2939 15.3821 10.2939C15.7232 10.2939 16 10.5708 16 10.9101V14.8909C16 15.5017 15.5036 15.9999 14.8911 15.9999H1.10893C0.498214 15.9999 0 15.5034 0 14.8909L0 10.9101C0 10.5708 0.275 10.2922 0.616071 10.2922C0.957143 10.2922 1.23393 10.569 1.23393 10.9101L1.23393 14.4015C1.23393 14.6051 1.4 14.7694 1.60179 14.7694H14.3964C14.6 14.7694 14.7643 14.6033 14.7643 14.4015V10.9119Z" fill="#1890FF"/>
</svg>
